<svg width="255" height="104" viewBox="0 0 255 104" fill="none" xmlns="http://www.w3.org/2000/svg">
<g filter="url(#filter0_d)">
<path d="M5.5075 34V2.512H13.3795C18.2435 2.512 21.9395 3.856 24.4675 6.544C26.9955 9.232 28.2595 13.088 28.2595 18.112C28.2595 20.608 27.9395 22.848 27.2995 24.832C26.6595 26.784 25.7155 28.448 24.4675 29.824C23.2195 31.168 21.6835 32.208 19.8595 32.944C18.0355 33.648 15.9395 34 13.5715 34H5.5075ZM9.4915 30.736H13.0915C16.7715 30.736 19.5235 29.632 21.3475 27.424C23.2035 25.216 24.1315 22.112 24.1315 18.112C24.1315 14.112 23.2035 11.056 21.3475 8.944C19.5235 6.832 16.7715 5.776 13.0915 5.776H9.4915V30.736ZM35.0388 34V2.512H53.1828V5.872H39.0228V15.76H50.9748V19.168H39.0228V30.592H53.6628V34H35.0388ZM72.2553 34.576C70.2713 34.576 68.4473 34.208 66.7833 33.472C65.1193 32.736 63.6633 31.68 62.4153 30.304C61.1993 28.896 60.2393 27.184 59.5353 25.168C58.8633 23.12 58.5273 20.816 58.5273 18.256C58.5273 15.728 58.8793 13.456 59.5833 11.44C60.2873 9.424 61.2633 7.712 62.5113 6.304C63.7593 4.896 65.2313 3.824 66.9273 3.088C68.6233 2.32 70.4793 1.936 72.4953 1.936C74.4153 1.936 76.0953 2.336 77.5353 3.136C79.0073 3.904 80.2073 4.8 81.1353 5.824L78.9753 8.416C78.1433 7.52 77.1993 6.8 76.1433 6.256C75.0873 5.712 73.8873 5.44 72.5433 5.44C71.0393 5.44 69.6793 5.744 68.4633 6.352C67.2473 6.928 66.2073 7.776 65.3433 8.896C64.4793 9.984 63.8073 11.312 63.3273 12.88C62.8793 14.448 62.6553 16.208 62.6553 18.16C62.6553 20.144 62.8793 21.936 63.3273 23.536C63.8073 25.104 64.4633 26.448 65.2953 27.568C66.1273 28.688 67.1353 29.552 68.3193 30.16C69.5353 30.768 70.8953 31.072 72.3993 31.072C73.9353 31.072 75.2793 30.768 76.4313 30.16C77.5833 29.52 78.6713 28.64 79.6953 27.52L81.9033 30.016C80.6553 31.456 79.2473 32.576 77.6793 33.376C76.1113 34.176 74.3033 34.576 72.2553 34.576ZM87.7731 34V2.512H105.917V5.872H91.7571V15.76H103.709V19.168H91.7571V30.592H106.397V34H87.7731ZM113.086 34V2.512H117.886L123.934 19.312C124.318 20.4 124.686 21.504 125.038 22.624C125.422 23.712 125.806 24.8 126.19 25.888H126.382C126.766 24.8 127.118 23.712 127.438 22.624C127.79 21.504 128.158 20.4 128.542 19.312L134.494 2.512H139.342V34H135.598V16.672C135.598 15.264 135.662 13.712 135.79 12.016C135.918 10.32 136.03 8.768 136.126 7.36H135.934L133.438 14.512L127.486 30.832H124.846L118.894 14.512L116.398 7.36H116.206C116.302 8.768 116.398 10.32 116.494 12.016C116.622 13.712 116.686 15.264 116.686 16.672V34H113.086ZM147.961 34V2.512H166.105V5.872H151.945V15.76H163.897V19.168H151.945V30.592H166.585V34H147.961ZM173.273 34V2.512H182.633C184.233 2.512 185.689 2.656 187.001 2.944C188.345 3.232 189.481 3.68 190.409 4.288C191.369 4.896 192.105 5.696 192.617 6.688C193.161 7.648 193.433 8.816 193.433 10.192C193.433 11.76 193.033 13.184 192.233 14.464C191.465 15.712 190.329 16.576 188.825 17.056V17.248C190.745 17.6 192.297 18.4 193.481 19.648C194.665 20.896 195.257 22.608 195.257 24.784C195.257 26.32 194.969 27.664 194.393 28.816C193.817 29.968 193.001 30.928 191.945 31.696C190.889 32.464 189.625 33.04 188.153 33.424C186.681 33.808 185.065 34 183.305 34H173.273ZM177.257 15.904H181.913C184.601 15.904 186.537 15.44 187.721 14.512C188.905 13.584 189.497 12.32 189.497 10.72C189.497 8.896 188.873 7.6 187.625 6.832C186.409 6.064 184.569 5.68 182.105 5.68H177.257V15.904ZM177.257 30.832H182.729C185.449 30.832 187.561 30.336 189.065 29.344C190.569 28.32 191.321 26.752 191.321 24.64C191.321 22.688 190.585 21.264 189.113 20.368C187.641 19.44 185.513 18.976 182.729 18.976H177.257V30.832ZM201.492 34V2.512H219.636V5.872H205.476V15.76H217.428V19.168H205.476V30.592H220.116V34H201.492ZM226.804 34V2.512H236.644C238.244 2.512 239.716 2.672 241.06 2.992C242.436 3.28 243.604 3.776 244.564 4.48C245.556 5.184 246.324 6.096 246.868 7.216C247.412 8.336 247.684 9.712 247.684 11.344C247.684 13.808 247.044 15.776 245.764 17.248C244.484 18.72 242.756 19.728 240.58 20.272L248.596 34H244.084L236.5 20.704H230.788V34H226.804ZM230.788 17.44H236.068C238.532 17.44 240.42 16.944 241.732 15.952C243.044 14.928 243.7 13.392 243.7 11.344C243.7 9.264 243.044 7.808 241.732 6.976C240.42 6.144 238.532 5.728 236.068 5.728H230.788V17.44ZM79.7013 94V91.648C82.0053 89.344 84.0533 87.264 85.8453 85.408C87.6373 83.552 89.1413 81.84 90.3573 80.272C91.5733 78.672 92.5013 77.216 93.1413 75.904C93.7813 74.56 94.1013 73.264 94.1013 72.016C94.1013 70.256 93.6213 68.816 92.6613 67.696C91.7013 66.576 90.2453 66.016 88.2933 66.016C87.0133 66.016 85.8293 66.384 84.7413 67.12C83.6533 67.824 82.6613 68.688 81.7653 69.712L79.5093 67.456C80.7893 66.048 82.1493 64.928 83.5893 64.096C85.0293 63.232 86.7573 62.8 88.7733 62.8C91.6213 62.8 93.8613 63.632 95.4933 65.296C97.1253 66.928 97.9413 69.104 97.9413 71.824C97.9413 73.264 97.6213 74.72 96.9813 76.192C96.3733 77.632 95.5093 79.136 94.3893 80.704C93.3013 82.24 91.9893 83.856 90.4532 85.552C88.9493 87.216 87.2853 88.992 85.4613 90.88C86.2933 90.816 87.1573 90.752 88.0533 90.688C88.9493 90.624 89.7973 90.592 90.5973 90.592H99.4773V94H79.7013ZM113.593 94.576C110.489 94.576 108.073 93.2 106.345 90.448C104.617 87.696 103.753 83.744 103.753 78.592C103.753 73.44 104.617 69.52 106.345 66.832C108.073 64.144 110.489 62.8 113.593 62.8C116.665 62.8 119.065 64.144 120.793 66.832C122.521 69.52 123.385 73.44 123.385 78.592C123.385 83.744 122.521 87.696 120.793 90.448C119.065 93.2 116.665 94.576 113.593 94.576ZM113.593 91.408C114.489 91.408 115.289 91.168 115.993 90.688C116.729 90.176 117.353 89.408 117.865 88.384C118.409 87.328 118.825 86 119.113 84.4C119.401 82.768 119.545 80.832 119.545 78.592C119.545 76.352 119.401 74.432 119.113 72.832C118.825 71.232 118.409 69.936 117.865 68.944C117.353 67.92 116.729 67.168 115.993 66.688C115.289 66.208 114.489 65.968 113.593 65.968C112.697 65.968 111.881 66.208 111.145 66.688C110.409 67.168 109.769 67.92 109.225 68.944C108.713 69.936 108.313 71.232 108.025 72.832C107.737 74.432 107.593 76.352 107.593 78.592C107.593 83.072 108.137 86.336 109.225 88.384C110.345 90.4 111.801 91.408 113.593 91.408ZM127.42 94V91.648C129.724 89.344 131.772 87.264 133.564 85.408C135.356 83.552 136.86 81.84 138.076 80.272C139.292 78.672 140.22 77.216 140.86 75.904C141.5 74.56 141.82 73.264 141.82 72.016C141.82 70.256 141.34 68.816 140.38 67.696C139.42 66.576 137.964 66.016 136.012 66.016C134.732 66.016 133.548 66.384 132.46 67.12C131.372 67.824 130.38 68.688 129.484 69.712L127.228 67.456C128.508 66.048 129.868 64.928 131.308 64.096C132.748 63.232 134.476 62.8 136.492 62.8C139.34 62.8 141.58 63.632 143.212 65.296C144.844 66.928 145.66 69.104 145.66 71.824C145.66 73.264 145.34 74.72 144.7 76.192C144.092 77.632 143.228 79.136 142.108 80.704C141.02 82.24 139.708 83.856 138.172 85.552C136.668 87.216 135.004 88.992 133.18 90.88C134.012 90.816 134.876 90.752 135.772 90.688C136.668 90.624 137.516 90.592 138.316 90.592H147.196V94H127.42ZM161.311 94.576C158.207 94.576 155.791 93.2 154.063 90.448C152.335 87.696 151.471 83.744 151.471 78.592C151.471 73.44 152.335 69.52 154.063 66.832C155.791 64.144 158.207 62.8 161.311 62.8C164.383 62.8 166.783 64.144 168.511 66.832C170.239 69.52 171.103 73.44 171.103 78.592C171.103 83.744 170.239 87.696 168.511 90.448C166.783 93.2 164.383 94.576 161.311 94.576ZM161.311 91.408C162.207 91.408 163.007 91.168 163.711 90.688C164.447 90.176 165.071 89.408 165.583 88.384C166.127 87.328 166.543 86 166.831 84.4C167.119 82.768 167.263 80.832 167.263 78.592C167.263 76.352 167.119 74.432 166.831 72.832C166.543 71.232 166.127 69.936 165.583 68.944C165.071 67.92 164.447 67.168 163.711 66.688C163.007 66.208 162.207 65.968 161.311 65.968C160.415 65.968 159.599 66.208 158.863 66.688C158.127 67.168 157.487 67.92 156.943 68.944C156.431 69.936 156.031 71.232 155.743 72.832C155.455 74.432 155.311 76.352 155.311 78.592C155.311 83.072 155.855 86.336 156.943 88.384C158.063 90.4 159.519 91.408 161.311 91.408Z" fill="black"/>
<path d="M5.5075 34H4.5075V35H5.5075V34ZM5.5075 2.512V1.512H4.5075V2.512H5.5075ZM27.2995 24.832L28.2497 25.1436L28.2512 25.139L27.2995 24.832ZM24.4675 29.824L25.2003 30.5045L25.2082 30.4958L24.4675 29.824ZM19.8595 32.944L20.2196 33.8769L20.2267 33.8742L20.2337 33.8714L19.8595 32.944ZM9.4915 30.736H8.4915V31.736H9.4915V30.736ZM21.3475 27.424L20.582 26.7805L20.5765 26.7871L21.3475 27.424ZM21.3475 8.944L20.5906 9.59764L20.5963 9.60411L21.3475 8.944ZM9.4915 5.776V4.776H8.4915V5.776H9.4915ZM6.5075 34V2.512H4.5075V34H6.5075ZM5.5075 3.512H13.3795V1.512H5.5075V3.512ZM13.3795 3.512C18.0596 3.512 21.4549 4.80042 23.739 7.22909L25.196 5.8589C22.4241 2.91158 18.4274 1.512 13.3795 1.512V3.512ZM23.739 7.22909C26.0377 9.67318 27.2595 13.2491 27.2595 18.112H29.2595C29.2595 12.9269 27.9533 8.79081 25.196 5.8589L23.739 7.22909ZM27.2595 18.112C27.2595 20.5237 26.9502 22.6575 26.3478 24.525L28.2512 25.139C28.9288 23.0385 29.2595 20.6923 29.2595 18.112H27.2595ZM26.3493 24.5204C25.7484 26.3532 24.8709 27.8908 23.7268 29.1522L25.2082 30.4958C26.5601 29.0052 27.5706 27.2148 28.2497 25.1435L26.3493 24.5204ZM23.7347 29.1435C22.5938 30.3722 21.1831 31.3316 19.4853 32.0166L20.2337 33.8714C22.1839 33.0844 23.8452 31.9638 25.2003 30.5045L23.7347 29.1435ZM19.4994 32.0111C17.8117 32.6625 15.8416 33 13.5715 33V35C16.0374 35 18.2593 34.6335 20.2196 33.8769L19.4994 32.0111ZM13.5715 33H5.5075V35H13.5715V33ZM9.4915 31.736H13.0915V29.736H9.4915V31.736ZM13.0915 31.736C16.978 31.736 20.0529 30.5613 22.1185 28.0609L20.5765 26.7871C18.9941 28.7027 16.565 29.736 13.0915 29.736V31.736ZM22.113 28.0675C24.1699 25.6204 25.1315 22.257 25.1315 18.112H23.1315C23.1315 21.967 22.2371 24.8116 20.582 26.7805L22.113 28.0675ZM25.1315 18.112C25.1315 13.9707 24.1714 10.6425 22.0987 8.28388L20.5963 9.60411C22.2356 11.4695 23.1315 14.2533 23.1315 18.112H25.1315ZM22.1043 8.29038C20.0343 5.89354 16.9637 4.776 13.0915 4.776V6.776C16.5793 6.776 19.0127 7.77046 20.5907 9.59762L22.1043 8.29038ZM13.0915 4.776H9.4915V6.776H13.0915V4.776ZM8.4915 5.776V30.736H10.4915V5.776H8.4915ZM35.0388 34H34.0388V35H35.0388V34ZM35.0388 2.512V1.512H34.0388V2.512H35.0388ZM53.1828 2.512H54.1828V1.512H53.1828V2.512ZM53.1828 5.872V6.872H54.1828V5.872H53.1828ZM39.0228 5.872V4.872H38.0228V5.872H39.0228ZM39.0228 15.76H38.0228V16.76H39.0228V15.76ZM50.9748 15.76H51.9748V14.76H50.9748V15.76ZM50.9748 19.168V20.168H51.9748V19.168H50.9748ZM39.0228 19.168V18.168H38.0228V19.168H39.0228ZM39.0228 30.592H38.0228V31.592H39.0228V30.592ZM53.6628 30.592H54.6628V29.592H53.6628V30.592ZM53.6628 34V35H54.6628V34H53.6628ZM36.0388 34V2.512H34.0388V34H36.0388ZM35.0388 3.512H53.1828V1.512H35.0388V3.512ZM52.1828 2.512V5.872H54.1828V2.512H52.1828ZM53.1828 4.872H39.0228V6.872H53.1828V4.872ZM38.0228 5.872V15.76H40.0228V5.872H38.0228ZM39.0228 16.76H50.9748V14.76H39.0228V16.76ZM49.9748 15.76V19.168H51.9748V15.76H49.9748ZM50.9748 18.168H39.0228V20.168H50.9748V18.168ZM38.0228 19.168V30.592H40.0228V19.168H38.0228ZM39.0228 31.592H53.6628V29.592H39.0228V31.592ZM52.6628 30.592V34H54.6628V30.592H52.6628ZM53.6628 33H35.0388V35H53.6628V33ZM66.7833 33.472L66.3787 34.3865L66.3787 34.3865L66.7833 33.472ZM62.4153 30.304L61.6584 30.9576L61.6664 30.9668L61.6745 30.9758L62.4153 30.304ZM59.5353 25.168L58.5851 25.4798L58.588 25.4888L58.5912 25.4977L59.5353 25.168ZM62.5113 6.304L63.2596 6.96731L63.2596 6.96731L62.5113 6.304ZM66.9273 3.088L67.3253 4.00534L67.3326 4.0022L67.3398 3.99895L66.9273 3.088ZM77.5353 3.136L77.0496 4.01016L77.0611 4.01652L77.0727 4.02258L77.5353 3.136ZM81.1353 5.824L81.9035 6.46418L82.4599 5.7965L81.8762 5.15248L81.1353 5.824ZM78.9753 8.416L78.2425 9.09645L79.0158 9.92933L79.7435 9.05618L78.9753 8.416ZM76.1433 6.256L75.6853 7.14497L75.6853 7.14497L76.1433 6.256ZM68.4633 6.352L68.8913 7.25574L68.9009 7.25118L68.9105 7.24643L68.4633 6.352ZM65.3433 8.896L66.1264 9.51794L66.135 9.5068L65.3433 8.896ZM63.3273 12.88L62.3711 12.5873L62.3683 12.5963L62.3657 12.6053L63.3273 12.88ZM63.3273 23.536L62.3643 23.8056L62.3675 23.8172L62.3711 23.8287L63.3273 23.536ZM65.2953 27.568L64.4925 28.1643L64.4925 28.1643L65.2953 27.568ZM68.3193 30.16L67.8624 31.0496L67.872 31.0544L68.3193 30.16ZM76.4313 30.16L76.898 31.0444L76.9075 31.0394L76.9169 31.0342L76.4313 30.16ZM79.6953 27.52L80.4442 26.8574L79.7075 26.0246L78.9572 26.8452L79.6953 27.52ZM81.9033 30.016L82.6589 30.6709L83.2324 30.0092L82.6522 29.3534L81.9033 30.016ZM77.6793 33.376L78.1337 34.2668L78.1337 34.2668L77.6793 33.376ZM72.2553 33.576C70.3978 33.576 68.7132 33.2322 67.1878 32.5575L66.3787 34.3865C68.1813 35.1838 70.1447 35.576 72.2553 35.576V33.576ZM67.1878 32.5575C65.6543 31.8792 64.3121 30.9069 63.156 29.6322L61.6745 30.9758C63.0144 32.4531 64.5842 33.5928 66.3787 34.3865L67.1878 32.5575ZM63.1721 29.6504C62.0495 28.3506 61.1479 26.7529 60.4793 24.8383L58.5912 25.4977C59.3306 27.6151 60.349 29.4414 61.6584 30.9576L63.1721 29.6504ZM60.4854 24.8562C59.852 22.9257 59.5273 20.7294 59.5273 18.256H57.5273C57.5273 20.9026 57.8745 23.3143 58.5851 25.4798L60.4854 24.8562ZM59.5273 18.256C59.5273 15.8201 59.8664 13.6622 60.5273 11.7697L58.6392 11.1103C57.8921 13.2498 57.5273 15.6359 57.5273 18.256H59.5273ZM60.5273 11.7697C61.1942 9.86008 62.1088 8.26563 63.2596 6.96731L61.7629 5.64069C60.4177 7.15837 59.3803 8.98792 58.6392 11.1103L60.5273 11.7697ZM63.2596 6.96731C64.4125 5.66654 65.7657 4.68219 67.3253 4.00534L66.5292 2.17065C64.6968 2.96581 63.106 4.12546 61.7629 5.64069L63.2596 6.96731ZM67.3398 3.99895C68.8957 3.29437 70.6096 2.936 72.4953 2.936V0.935998C70.3489 0.935998 68.3508 1.34562 66.5147 2.17704L67.3398 3.99895ZM72.4953 2.936C74.2736 2.936 75.7811 3.30543 77.0496 4.01016L78.0209 2.26184C76.4094 1.36657 74.5569 0.935998 72.4953 0.935998V2.936ZM77.0727 4.02258C78.4604 4.74662 79.5598 5.57475 80.3943 6.49552L81.8762 5.15248C80.8547 4.02524 79.5541 3.06138 77.9978 2.24941L77.0727 4.02258ZM80.367 5.18381L78.207 7.77581L79.7435 9.05618L81.9035 6.46418L80.367 5.18381ZM79.708 7.73555C78.7996 6.75717 77.7632 5.96564 76.6012 5.36702L75.6853 7.14497C76.6353 7.63435 77.487 8.28283 78.2425 9.09645L79.708 7.73555ZM76.6012 5.36703C75.3859 4.74096 74.0254 4.44 72.5433 4.44V6.44C73.7491 6.44 74.7886 6.68304 75.6853 7.14497L76.6012 5.36703ZM72.5433 4.44C70.9007 4.44 69.3851 4.77303 68.016 5.45757L68.9105 7.24643C69.9734 6.71497 71.1778 6.44 72.5433 6.44V4.44ZM68.0352 5.44826C66.6692 6.09531 65.5068 7.04682 64.5515 8.2852L66.135 9.5068C66.9077 8.50518 67.8253 7.76068 68.8913 7.25574L68.0352 5.44826ZM64.5601 8.27412C63.6057 9.47599 62.8812 10.9208 62.3711 12.5873L64.2835 13.1727C64.7333 11.7031 65.3528 10.492 66.1264 9.51788L64.5601 8.27412ZM62.3657 12.6053C61.8878 14.2781 61.6553 16.1327 61.6553 18.16H63.6553C63.6553 16.2833 63.8707 14.6179 64.2888 13.1547L62.3657 12.6053ZM61.6553 18.16C61.6553 20.2181 61.8875 22.1028 62.3643 23.8056L64.2902 23.2664C63.871 21.7692 63.6553 20.0699 63.6553 18.16H61.6553ZM62.3711 23.8287C62.8788 25.4872 63.5816 26.9381 64.4925 28.1643L66.098 26.9717C65.3449 25.9579 64.7357 24.7208 64.2835 23.2433L62.3711 23.8287ZM64.4925 28.1643C65.4113 29.4012 66.5356 30.3682 67.8624 31.0496L68.7761 29.2704C67.7349 28.7358 66.8432 27.9748 66.098 26.9717L64.4925 28.1643ZM67.872 31.0544C69.2411 31.739 70.7567 32.072 72.3993 32.072V30.072C71.0338 30.072 69.8294 29.797 68.7665 29.2656L67.872 31.0544ZM72.3993 32.072C74.0688 32.072 75.5784 31.7408 76.898 31.0444L75.9645 29.2756C74.9801 29.7952 73.8017 30.072 72.3993 30.072V32.072ZM76.9169 31.0342C78.1763 30.3345 79.3473 29.3826 80.4333 28.1948L78.9572 26.8452C77.9952 27.8974 76.9902 28.7055 75.9456 29.2858L76.9169 31.0342ZM78.9463 28.1826L81.1543 30.6786L82.6522 29.3534L80.4442 26.8574L78.9463 28.1826ZM81.1476 29.3611C79.9768 30.7119 78.669 31.7484 77.2248 32.4852L78.1337 34.2668C79.8255 33.4036 81.3337 32.2001 82.6589 30.6709L81.1476 29.3611ZM77.2248 32.4852C75.8189 33.2025 74.1711 33.576 72.2553 33.576V35.576C74.4354 35.576 76.4036 35.1495 78.1337 34.2668L77.2248 32.4852ZM87.7731 34H86.7731V35H87.7731V34ZM87.7731 2.512V1.512H86.7731V2.512H87.7731ZM105.917 2.512H106.917V1.512H105.917V2.512ZM105.917 5.872V6.872H106.917V5.872H105.917ZM91.7571 5.872V4.872H90.7571V5.872H91.7571ZM91.7571 15.76H90.7571V16.76H91.7571V15.76ZM103.709 15.76H104.709V14.76H103.709V15.76ZM103.709 19.168V20.168H104.709V19.168H103.709ZM91.7571 19.168V18.168H90.7571V19.168H91.7571ZM91.7571 30.592H90.7571V31.592H91.7571V30.592ZM106.397 30.592H107.397V29.592H106.397V30.592ZM106.397 34V35H107.397V34H106.397ZM88.7731 34V2.512H86.7731V34H88.7731ZM87.7731 3.512H105.917V1.512H87.7731V3.512ZM104.917 2.512V5.872H106.917V2.512H104.917ZM105.917 4.872H91.7571V6.872H105.917V4.872ZM90.7571 5.872V15.76H92.7571V5.872H90.7571ZM91.7571 16.76H103.709V14.76H91.7571V16.76ZM102.709 15.76V19.168H104.709V15.76H102.709ZM103.709 18.168H91.7571V20.168H103.709V18.168ZM90.7571 19.168V30.592H92.7571V19.168H90.7571ZM91.7571 31.592H106.397V29.592H91.7571V31.592ZM105.397 30.592V34H107.397V30.592H105.397ZM106.397 33H87.7731V35H106.397V33ZM113.086 34H112.086V35H113.086V34ZM113.086 2.512V1.512H112.086V2.512H113.086ZM117.886 2.512L118.827 2.17328L118.588 1.512H117.886V2.512ZM123.934 19.312L124.877 18.9792L124.875 18.9733L123.934 19.312ZM125.038 22.624L124.084 22.9238L124.089 22.9404L124.095 22.9568L125.038 22.624ZM126.19 25.888L125.247 26.2208L125.482 26.888H126.19V25.888ZM126.382 25.888V26.888H127.089L127.325 26.2208L126.382 25.888ZM127.438 22.624L126.484 22.3242L126.481 22.333L126.478 22.3418L127.438 22.624ZM128.542 19.312L127.599 18.9781L127.599 18.9792L128.542 19.312ZM134.494 2.512V1.512H133.787L133.551 2.17805L134.494 2.512ZM139.342 2.512H140.342V1.512H139.342V2.512ZM139.342 34V35H140.342V34H139.342ZM135.598 34H134.598V35H135.598V34ZM136.126 7.36L137.123 7.42802L137.196 6.36H136.126V7.36ZM135.934 7.36V6.36H135.223L134.989 7.0305L135.934 7.36ZM133.438 14.512L134.377 14.8547L134.382 14.8415L133.438 14.512ZM127.486 30.832V31.832H128.185L128.425 31.1746L127.486 30.832ZM124.846 30.832L123.906 31.1746L124.146 31.832H124.846V30.832ZM118.894 14.512L117.949 14.8415L117.954 14.8546L118.894 14.512ZM116.398 7.36L117.342 7.0305L117.108 6.36H116.398V7.36ZM116.206 7.36V6.36H115.135L115.208 7.42802L116.206 7.36ZM116.494 12.016L115.495 12.0725L115.496 12.0819L115.496 12.0913L116.494 12.016ZM116.686 34V35H117.686V34H116.686ZM114.086 34V2.512H112.086V34H114.086ZM113.086 3.512H117.886V1.512H113.086V3.512ZM116.945 2.85072L122.993 19.6507L124.875 18.9733L118.827 2.17328L116.945 2.85072ZM122.991 19.6448C123.371 20.7217 123.735 21.8147 124.084 22.9238L125.992 22.3242C125.636 21.1933 125.265 20.0783 124.877 18.9792L122.991 19.6448ZM124.095 22.9568C124.479 24.0448 124.863 25.1328 125.247 26.2208L127.133 25.5552C126.749 24.4672 126.365 23.3792 125.981 22.2912L124.095 22.9568ZM126.19 26.888H126.382V24.888H126.19V26.888ZM127.325 26.2208C127.714 25.1164 128.072 24.0115 128.397 22.9062L126.478 22.3418C126.163 23.4125 125.817 24.4836 125.439 25.5552L127.325 26.2208ZM128.392 22.9238C128.74 21.8147 129.105 20.7217 129.485 19.6448L127.599 18.9792C127.211 20.0783 126.839 21.1933 126.484 22.3242L128.392 22.9238ZM129.484 19.6459L135.436 2.84595L133.551 2.17805L127.599 18.9781L129.484 19.6459ZM134.494 3.512H139.342V1.512H134.494V3.512ZM138.342 2.512V34H140.342V2.512H138.342ZM139.342 33H135.598V35H139.342V33ZM136.598 34V16.672H134.598V34H136.598ZM136.598 16.672C136.598 15.2936 136.66 13.7672 136.787 12.0913L134.792 11.9407C134.663 13.6568 134.598 15.2344 134.598 16.672H136.598ZM136.787 12.0913C136.915 10.3933 137.027 8.83886 137.123 7.42802L135.128 7.29198C135.032 8.69713 134.92 10.2467 134.792 11.9407L136.787 12.0913ZM136.126 6.36H135.934V8.36H136.126V6.36ZM134.989 7.0305L132.493 14.1825L134.382 14.8415L136.878 7.6895L134.989 7.0305ZM132.498 14.1694L126.546 30.4894L128.425 31.1746L134.377 14.8546L132.498 14.1694ZM127.486 29.832H124.846V31.832H127.486V29.832ZM125.785 30.4894L119.833 14.1694L117.954 14.8546L123.906 31.1746L125.785 30.4894ZM119.838 14.1825L117.342 7.0305L115.453 7.6895L117.949 14.8415L119.838 14.1825ZM116.398 6.36H116.206V8.36H116.398V6.36ZM115.208 7.42802C115.304 8.83151 115.399 10.3796 115.495 12.0725L117.492 11.9595C117.396 10.2604 117.3 8.70449 117.203 7.29198L115.208 7.42802ZM115.496 12.0913C115.623 13.7672 115.686 15.2936 115.686 16.672H117.686C117.686 15.2344 117.62 13.6568 117.491 11.9407L115.496 12.0913ZM115.686 16.672V34H117.686V16.672H115.686ZM116.686 33H113.086V35H116.686V33ZM147.961 34H146.961V35H147.961V34ZM147.961 2.512V1.512H146.961V2.512H147.961ZM166.105 2.512H167.105V1.512H166.105V2.512ZM166.105 5.872V6.872H167.105V5.872H166.105ZM151.945 5.872V4.872H150.945V5.872H151.945ZM151.945 15.76H150.945V16.76H151.945V15.76ZM163.897 15.76H164.897V14.76H163.897V15.76ZM163.897 19.168V20.168H164.897V19.168H163.897ZM151.945 19.168V18.168H150.945V19.168H151.945ZM151.945 30.592H150.945V31.592H151.945V30.592ZM166.585 30.592H167.585V29.592H166.585V30.592ZM166.585 34V35H167.585V34H166.585ZM148.961 34V2.512H146.961V34H148.961ZM147.961 3.512H166.105V1.512H147.961V3.512ZM165.105 2.512V5.872H167.105V2.512H165.105ZM166.105 4.872H151.945V6.872H166.105V4.872ZM150.945 5.872V15.76H152.945V5.872H150.945ZM151.945 16.76H163.897V14.76H151.945V16.76ZM162.897 15.76V19.168H164.897V15.76H162.897ZM163.897 18.168H151.945V20.168H163.897V18.168ZM150.945 19.168V30.592H152.945V19.168H150.945ZM151.945 31.592H166.585V29.592H151.945V31.592ZM165.585 30.592V34H167.585V30.592H165.585ZM166.585 33H147.961V35H166.585V33ZM173.273 34H172.273V35H173.273V34ZM173.273 2.512V1.512H172.273V2.512H173.273ZM187.001 2.944L186.787 3.92076L186.792 3.9218L187.001 2.944ZM190.409 4.288L189.861 5.12446L189.868 5.12869L189.874 5.13282L190.409 4.288ZM192.617 6.688L191.729 7.14664L191.737 7.16401L191.747 7.18101L192.617 6.688ZM192.233 14.464L191.385 13.934L191.381 13.9399L192.233 14.464ZM188.825 17.056L188.521 16.1033L187.825 16.3255V17.056H188.825ZM188.825 17.248H187.825V18.0813L188.645 18.2316L188.825 17.248ZM194.393 28.816L195.288 29.2632L195.288 29.2632L194.393 28.816ZM191.945 31.696L192.533 32.5047L192.533 32.5047L191.945 31.696ZM177.257 15.904H176.257V16.904H177.257V15.904ZM187.721 14.512L188.338 15.2991L188.338 15.2991L187.721 14.512ZM187.625 6.832L187.091 7.67754L187.101 7.68366L187.625 6.832ZM177.257 5.68V4.68H176.257V5.68H177.257ZM177.257 30.832H176.257V31.832H177.257V30.832ZM189.065 29.344L189.616 30.1788L189.622 30.1747L189.628 30.1706L189.065 29.344ZM189.113 20.368L188.58 21.2139L188.586 21.2181L188.593 21.2222L189.113 20.368ZM177.257 18.976V17.976H176.257V18.976H177.257ZM174.273 34V2.512H172.273V34H174.273ZM173.273 3.512H182.633V1.512H173.273V3.512ZM182.633 3.512C184.174 3.512 185.557 3.6508 186.787 3.92074L187.216 1.96725C185.821 1.66119 184.292 1.512 182.633 1.512V3.512ZM186.792 3.9218C188.043 4.18992 189.058 4.59805 189.861 5.12446L190.957 3.45154C189.905 2.76195 188.647 2.27408 187.211 1.9662L186.792 3.9218ZM189.874 5.13282C190.687 5.64757 191.299 6.31543 191.729 7.14664L193.506 6.22936C192.911 5.07657 192.051 4.14443 190.944 3.44318L189.874 5.13282ZM191.747 7.18101C192.187 7.95782 192.433 8.94666 192.433 10.192H194.433C194.433 8.68534 194.135 7.33818 193.487 6.19499L191.747 7.18101ZM192.433 10.192C192.433 11.5802 192.082 12.8193 191.385 13.934L193.081 14.994C193.984 13.5487 194.433 11.9398 194.433 10.192H192.433ZM191.381 13.9399C190.749 14.9677 189.816 15.69 188.521 16.1033L189.129 18.0087C190.842 17.462 192.181 16.4563 193.085 14.9881L191.381 13.9399ZM187.825 17.056V17.248H189.825V17.056H187.825ZM188.645 18.2316C190.386 18.5508 191.737 19.2622 192.756 20.3363L194.207 18.9597C192.858 17.5378 191.105 16.6492 189.005 16.2644L188.645 18.2316ZM192.756 20.3363C193.72 21.3528 194.257 22.7933 194.257 24.784H196.257C196.257 22.4227 195.61 20.4392 194.207 18.9597L192.756 20.3363ZM194.257 24.784C194.257 26.1944 193.993 27.3799 193.499 28.3688L195.288 29.2632C195.945 27.9481 196.257 26.4456 196.257 24.784H194.257ZM193.499 28.3688C192.995 29.3754 192.285 30.2121 191.357 30.8873L192.533 32.5047C193.717 31.6439 194.639 30.5606 195.288 29.2632L193.499 28.3688ZM191.357 30.8873C190.417 31.5707 189.271 32.0988 187.901 32.4564L188.406 34.3916C189.979 33.9812 191.361 33.3573 192.533 32.5047L191.357 30.8873ZM187.901 32.4564C186.523 32.8158 184.993 33 183.305 33V35C185.137 35 186.839 34.8002 188.406 34.3916L187.901 32.4564ZM183.305 33H173.273V35H183.305V33ZM177.257 16.904H181.913V14.904H177.257V16.904ZM181.913 16.904C184.669 16.904 186.885 16.4375 188.338 15.2991L187.104 13.7249C186.189 14.4425 184.534 14.904 181.913 14.904V16.904ZM188.338 15.2991C189.781 14.168 190.497 12.6047 190.497 10.72H188.497C188.497 12.0353 188.029 13 187.104 13.7249L188.338 15.2991ZM190.497 10.72C190.497 8.64668 189.768 6.97636 188.149 5.98034L187.101 7.68366C187.978 8.22363 188.497 9.14532 188.497 10.72H190.497ZM188.159 5.98651C186.706 5.06874 184.639 4.68 182.105 4.68V6.68C184.499 6.68 186.112 7.05926 187.091 7.67749L188.159 5.98651ZM182.105 4.68H177.257V6.68H182.105V4.68ZM176.257 5.68V15.904H178.257V5.68H176.257ZM177.257 31.832H182.729V29.832H177.257V31.832ZM182.729 31.832C185.552 31.832 187.885 31.3204 189.616 30.1788L188.515 28.5092C187.237 29.3516 185.347 29.832 182.729 29.832V31.832ZM189.628 30.1706C191.453 28.9282 192.321 27.0214 192.321 24.64H190.321C190.321 26.4826 189.686 27.7118 188.502 28.5174L189.628 30.1706ZM192.321 24.64C192.321 22.3941 191.447 20.6182 189.633 19.5138L188.593 21.2222C189.723 21.9098 190.321 22.9819 190.321 24.64H192.321ZM189.646 19.5221C187.946 18.4499 185.599 17.976 182.729 17.976V19.976C185.427 19.976 187.337 20.4301 188.58 21.2139L189.646 19.5221ZM182.729 17.976H177.257V19.976H182.729V17.976ZM176.257 18.976V30.832H178.257V18.976H176.257ZM201.492 34H200.492V35H201.492V34ZM201.492 2.512V1.512H200.492V2.512H201.492ZM219.636 2.512H220.636V1.512H219.636V2.512ZM219.636 5.872V6.872H220.636V5.872H219.636ZM205.476 5.872V4.872H204.476V5.872H205.476ZM205.476 15.76H204.476V16.76H205.476V15.76ZM217.428 15.76H218.428V14.76H217.428V15.76ZM217.428 19.168V20.168H218.428V19.168H217.428ZM205.476 19.168V18.168H204.476V19.168H205.476ZM205.476 30.592H204.476V31.592H205.476V30.592ZM220.116 30.592H221.116V29.592H220.116V30.592ZM220.116 34V35H221.116V34H220.116ZM202.492 34V2.512H200.492V34H202.492ZM201.492 3.512H219.636V1.512H201.492V3.512ZM218.636 2.512V5.872H220.636V2.512H218.636ZM219.636 4.872H205.476V6.872H219.636V4.872ZM204.476 5.872V15.76H206.476V5.872H204.476ZM205.476 16.76H217.428V14.76H205.476V16.76ZM216.428 15.76V19.168H218.428V15.76H216.428ZM217.428 18.168H205.476V20.168H217.428V18.168ZM204.476 19.168V30.592H206.476V19.168H204.476ZM205.476 31.592H220.116V29.592H205.476V31.592ZM219.116 30.592V34H221.116V30.592H219.116ZM220.116 33H201.492V35H220.116V33ZM226.804 34H225.804V35H226.804V34ZM226.804 2.512V1.512H225.804V2.512H226.804ZM241.06 2.992L240.829 3.9648L240.842 3.96798L240.856 3.97079L241.06 2.992ZM244.564 4.48L243.973 5.2864L243.979 5.291L243.986 5.29551L244.564 4.48ZM246.868 7.216L245.969 7.6529L245.969 7.6529L246.868 7.216ZM245.764 17.248L245.01 16.5918L245.01 16.5918L245.764 17.248ZM240.58 20.272L240.338 19.3019L239.045 19.6251L239.717 20.7762L240.58 20.272ZM248.596 34V35H250.338L249.46 33.4958L248.596 34ZM244.084 34L243.216 34.4955L243.504 35H244.084V34ZM236.5 20.704L237.369 20.2085L237.081 19.704H236.5V20.704ZM230.788 20.704V19.704H229.788V20.704H230.788ZM230.788 34V35H231.788V34H230.788ZM230.788 17.44H229.788V18.44H230.788V17.44ZM241.732 15.952L242.335 16.7497L242.342 16.745L242.348 16.7403L241.732 15.952ZM230.788 5.728V4.728H229.788V5.728H230.788ZM227.804 34V2.512H225.804V34H227.804ZM226.804 3.512H236.644V1.512H226.804V3.512ZM236.644 3.512C238.178 3.512 239.571 3.66545 240.829 3.9648L241.292 2.01919C239.861 1.67855 238.31 1.512 236.644 1.512V3.512ZM240.856 3.97079C242.117 4.23479 243.147 4.68067 243.973 5.2864L245.156 3.67359C244.062 2.87133 242.756 2.32521 241.265 2.01321L240.856 3.97079ZM243.986 5.29551C244.837 5.89989 245.496 6.68033 245.969 7.6529L247.768 6.7791C247.152 5.51167 246.275 4.4681 245.143 3.66449L243.986 5.29551ZM245.969 7.6529C246.43 8.60126 246.684 9.81823 246.684 11.344H248.684C248.684 9.60577 248.395 8.07073 247.768 6.77909L245.969 7.6529ZM246.684 11.344C246.684 13.6323 246.093 15.3458 245.01 16.5918L246.519 17.9042C247.995 16.2062 248.684 13.9837 248.684 11.344H246.684ZM245.01 16.5918C243.884 17.8868 242.346 18.7999 240.338 19.3019L240.823 21.2421C243.167 20.6561 245.085 19.5532 246.519 17.9042L245.01 16.5918ZM239.717 20.7762L247.733 34.5042L249.46 33.4958L241.444 19.7678L239.717 20.7762ZM248.596 33H244.084V35H248.596V33ZM244.953 33.5045L237.369 20.2085L235.632 21.1995L243.216 34.4955L244.953 33.5045ZM236.5 19.704H230.788V21.704H236.5V19.704ZM229.788 20.704V34H231.788V20.704H229.788ZM230.788 33H226.804V35H230.788V33ZM230.788 18.44H236.068V16.44H230.788V18.44ZM236.068 18.44C238.647 18.44 240.782 17.9239 242.335 16.7497L241.129 15.1543C240.058 15.9641 238.418 16.44 236.068 16.44V18.44ZM242.348 16.7403C243.958 15.4832 244.7 13.6214 244.7 11.344H242.7C242.7 13.1626 242.13 14.3728 241.117 15.1637L242.348 16.7403ZM244.7 11.344C244.7 9.05114 243.964 7.20694 242.268 6.13149L241.197 7.82051C242.125 8.40906 242.7 9.47685 242.7 11.344H244.7ZM242.268 6.13149C240.727 5.15463 238.621 4.728 236.068 4.728V6.728C238.444 6.728 240.113 7.13336 241.197 7.82051L242.268 6.13149ZM236.068 4.728H230.788V6.728H236.068V4.728ZM229.788 5.728V17.44H231.788V5.728H229.788ZM79.7013 94H78.7013V95H79.7013V94ZM79.7013 91.648L78.9941 90.9409L78.7013 91.2338V91.648H79.7013ZM85.8453 85.408L86.5647 86.1026L86.5647 86.1026L85.8453 85.408ZM90.3573 80.272L91.1475 80.8849L91.1534 80.8771L90.3573 80.272ZM93.1413 75.904L94.0401 76.3424L94.0441 76.3339L93.1413 75.904ZM92.6613 67.696L93.4205 67.0452L93.4205 67.0452L92.6613 67.696ZM84.7413 67.12L85.2845 67.9596L85.2931 67.954L85.3016 67.9483L84.7413 67.12ZM81.7653 69.712L81.0581 70.4191L81.814 71.1749L82.5178 70.3705L81.7653 69.712ZM79.5093 67.456L78.7693 66.7833L78.1279 67.4889L78.8021 68.1631L79.5093 67.456ZM83.5893 64.096L84.0895 64.9619L84.0967 64.9577L84.1037 64.9535L83.5893 64.096ZM95.4933 65.296L94.7793 65.9962L94.7861 66.0031L95.4933 65.296ZM96.9813 76.192L96.0641 75.7933L96.06 75.803L96.9813 76.192ZM94.3893 80.704L93.5755 80.1228L93.5732 80.126L94.3893 80.704ZM90.4532 85.552L89.712 84.8807L89.7114 84.8815L90.4532 85.552ZM85.4613 90.88L84.7421 90.1852L82.9124 92.079L85.5379 91.8771L85.4613 90.88ZM88.0533 90.688L87.982 89.6905L87.982 89.6905L88.0533 90.688ZM99.4773 90.592H100.477V89.592H99.4773V90.592ZM99.4773 94V95H100.477V94H99.4773ZM80.7013 94V91.648H78.7013V94H80.7013ZM80.4084 92.3551C82.7155 90.048 84.7677 87.9637 86.5647 86.1026L85.1258 84.7134C83.3388 86.5643 81.295 88.64 78.9941 90.9409L80.4084 92.3551ZM86.5647 86.1026C88.3747 84.2279 89.9039 82.4883 91.1475 80.8848L89.567 79.6592C88.3786 81.1917 86.8998 82.8761 85.1258 84.7134L86.5647 86.1026ZM91.1534 80.8771C92.3953 79.243 93.3629 77.7305 94.04 76.3424L92.2425 75.4656C91.6396 76.7015 90.7512 78.101 89.5611 79.6669L91.1534 80.8771ZM94.0441 76.3339C94.7359 74.8812 95.1013 73.4387 95.1013 72.016H93.1013C93.1013 73.0893 92.8266 74.2388 92.2384 75.4741L94.0441 76.3339ZM95.1013 72.016C95.1013 70.0656 94.5647 68.38 93.4205 67.0452L91.902 68.3468C92.6778 69.252 93.1013 70.4464 93.1013 72.016H95.1013ZM93.4205 67.0452C92.2138 65.6373 90.4369 65.016 88.2933 65.016V67.016C90.0536 67.016 91.1887 67.5147 91.902 68.3468L93.4205 67.0452ZM88.2933 65.016C86.808 65.016 85.4298 65.4469 84.1809 66.2917L85.3016 67.9483C86.2287 67.3211 87.2185 67.016 88.2933 67.016V65.016ZM84.198 66.2804C83.0284 67.0372 81.9667 67.9632 81.0127 69.0535L82.5178 70.3705C83.3558 69.4128 84.2781 68.6107 85.2845 67.9596L84.198 66.2804ZM82.4724 69.0049L80.2164 66.7489L78.8021 68.1631L81.0581 70.4191L82.4724 69.0049ZM80.2492 68.1287C81.4696 66.7862 82.7507 65.7354 84.0895 64.9619L83.089 63.2301C81.5478 64.1206 80.1089 65.3098 78.7693 66.7833L80.2492 68.1287ZM84.1037 64.9535C85.3598 64.1999 86.902 63.8 88.7733 63.8V61.8C86.6125 61.8 84.6987 62.2641 83.0748 63.2385L84.1037 64.9535ZM88.7733 63.8C91.4163 63.8 93.3757 64.5651 94.7793 65.9962L96.2072 64.5958C94.3468 62.6989 91.8262 61.8 88.7733 61.8V63.8ZM94.7861 66.0031C96.1974 67.4144 96.9413 69.3183 96.9413 71.824H98.9413C98.9413 68.8897 98.0531 66.4416 96.2004 64.5889L94.7861 66.0031ZM96.9413 71.824C96.9413 73.1119 96.6558 74.4326 96.0642 75.7933L97.8983 76.5907C98.5867 75.0074 98.9413 73.4161 98.9413 71.824H96.9413ZM96.06 75.803C95.4864 77.1616 94.6622 78.6014 93.5755 80.1228L95.203 81.2852C96.3563 79.6706 97.2601 78.1024 97.9025 76.581L96.06 75.803ZM93.5732 80.126C92.5126 81.6234 91.2267 83.2082 89.712 84.8807L91.1945 86.2233C92.7518 84.5038 94.0899 82.8566 95.2053 81.282L93.5732 80.126ZM89.7114 84.8815C88.2159 86.536 86.5596 88.3039 84.7421 90.1852L86.1804 91.5748C88.0109 89.6801 89.6826 87.896 91.1951 86.2225L89.7114 84.8815ZM85.5379 91.8771C86.368 91.8132 87.2302 91.7493 88.1245 91.6855L87.982 89.6905C87.0843 89.7547 86.2185 89.8188 85.3846 89.8829L85.5379 91.8771ZM88.1245 91.6855C88.9996 91.623 89.8237 91.592 90.5973 91.592V89.592C89.7708 89.592 88.8989 89.625 87.982 89.6905L88.1245 91.6855ZM90.5973 91.592H99.4773V89.592H90.5973V91.592ZM98.4773 90.592V94H100.477V90.592H98.4773ZM99.4773 93H79.7013V95H99.4773V93ZM106.345 90.448L105.498 90.9798L105.498 90.9798L106.345 90.448ZM106.345 66.832L105.503 66.2912L105.503 66.2912L106.345 66.832ZM120.793 66.832L121.634 66.2912L121.634 66.2912L120.793 66.832ZM120.793 90.448L121.64 90.9798L121.64 90.9798L120.793 90.448ZM115.993 90.688L116.556 91.5143L116.564 91.5089L115.993 90.688ZM117.865 88.384L116.976 87.926L116.97 87.9368L117.865 88.384ZM119.113 84.4L120.097 84.5772L120.097 84.5738L119.113 84.4ZM119.113 72.832L118.128 73.0092L118.128 73.0092L119.113 72.832ZM117.865 68.944L116.97 69.3912L116.979 69.4082L116.988 69.4248L117.865 68.944ZM115.993 66.688L115.429 67.5142L115.438 67.52L115.446 67.5256L115.993 66.688ZM111.145 66.688L111.691 67.5256L111.691 67.5256L111.145 66.688ZM109.225 68.944L108.341 68.4748L108.336 68.4854L109.225 68.944ZM108.025 72.832L107.04 72.6548L107.04 72.6548L108.025 72.832ZM109.225 88.384L108.342 88.8532L108.346 88.8614L108.35 88.8696L109.225 88.384ZM113.593 93.576C110.852 93.576 108.747 92.3934 107.192 89.9162L105.498 90.9798C107.398 94.0066 110.126 95.576 113.593 95.576V93.576ZM107.192 89.9162C105.606 87.3914 104.753 83.6564 104.753 78.592H102.753C102.753 83.8316 103.627 88.0006 105.498 90.9798L107.192 89.9162ZM104.753 78.592C104.753 73.5251 105.607 69.8286 107.186 67.3728L105.503 66.2912C103.626 69.2114 102.753 73.3549 102.753 78.592H104.753ZM107.186 67.3728C108.736 64.9608 110.841 63.8 113.593 63.8V61.8C110.136 61.8 107.409 63.3272 105.503 66.2912L107.186 67.3728ZM113.593 63.8C116.308 63.8 118.399 64.9571 119.951 67.3728L121.634 66.2912C119.731 63.3309 117.021 61.8 113.593 61.8V63.8ZM119.951 67.3728C121.53 69.8286 122.385 73.5251 122.385 78.592H124.385C124.385 73.3549 123.511 69.2114 121.634 66.2912L119.951 67.3728ZM122.385 78.592C122.385 83.6564 121.531 87.3914 119.946 89.9162L121.64 90.9798C123.51 88.0006 124.385 83.8316 124.385 78.592H122.385ZM119.946 89.9162C118.388 92.3972 116.297 93.576 113.593 93.576V95.576C117.032 95.576 119.741 94.0028 121.64 90.9798L119.946 89.9162ZM113.593 92.408C114.679 92.408 115.677 92.1135 116.556 91.5142L115.429 89.8618C114.9 90.2225 114.299 90.408 113.593 90.408V92.408ZM116.564 91.5089C117.47 90.8785 118.192 89.9644 118.759 88.8312L116.97 87.9368C116.513 88.8516 115.987 89.4735 115.422 89.8671L116.564 91.5089ZM118.754 88.842C119.356 87.6718 119.797 86.2416 120.097 84.5772L118.128 84.2228C117.852 85.7584 117.461 86.9842 116.976 87.926L118.754 88.842ZM120.097 84.5738C120.398 82.8684 120.545 80.8714 120.545 78.592H118.545C118.545 80.7926 118.403 82.6676 118.128 84.2262L120.097 84.5738ZM120.545 78.592C120.545 76.3131 120.398 74.3305 120.097 72.6548L118.128 73.0092C118.403 74.5335 118.545 76.3909 118.545 78.592H120.545ZM120.097 72.6548C119.797 70.9909 119.355 69.5815 118.741 68.4632L116.988 69.4248C117.463 70.2905 117.852 71.4731 118.128 73.0092L120.097 72.6548ZM118.759 68.4968C118.191 67.361 117.462 66.4524 116.539 65.8504L115.446 67.5256C115.995 67.8836 116.514 68.479 116.97 69.3912L118.759 68.4968ZM116.556 65.8618C115.677 65.2625 114.679 64.968 113.593 64.968V66.968C114.299 66.968 114.9 67.1535 115.429 67.5142L116.556 65.8618ZM113.593 64.968C112.507 64.968 111.5 65.2622 110.598 65.8504L111.691 67.5256C112.261 67.1538 112.887 66.968 113.593 66.968V64.968ZM110.598 65.8504C109.683 66.4476 108.94 67.3477 108.342 68.4748L110.108 69.4132C110.597 68.4923 111.135 67.8884 111.691 67.5256L110.598 65.8504ZM108.336 68.4854C107.763 69.5962 107.339 70.9973 107.04 72.6548L109.009 73.0092C109.286 71.4667 109.663 70.2758 110.113 69.4026L108.336 68.4854ZM107.04 72.6548C106.739 74.3305 106.593 76.3131 106.593 78.592H108.593C108.593 76.3909 108.734 74.5335 109.009 73.0092L107.04 72.6548ZM106.593 78.592C106.593 83.1099 107.134 86.5801 108.342 88.8532L110.108 87.9148C109.139 86.0919 108.593 83.0341 108.593 78.592H106.593ZM108.35 88.8696C109.588 91.0973 111.331 92.408 113.593 92.408V90.408C112.271 90.408 111.101 89.7027 110.099 87.8984L108.35 88.8696ZM127.42 94H126.42V95H127.42V94ZM127.42 91.648L126.713 90.9409L126.42 91.2338V91.648H127.42ZM133.564 85.408L134.283 86.1026L134.283 86.1026L133.564 85.408ZM138.076 80.272L138.866 80.8849L138.872 80.8771L138.076 80.272ZM140.86 75.904L141.759 76.3424L141.763 76.3339L140.86 75.904ZM140.38 67.696L141.139 67.0452L141.139 67.0452L140.38 67.696ZM132.46 67.12L133.003 67.9596L133.012 67.954L133.02 67.9483L132.46 67.12ZM129.484 69.712L128.777 70.4191L129.533 71.1749L130.237 70.3705L129.484 69.712ZM127.228 67.456L126.488 66.7833L125.847 67.4889L126.521 68.1631L127.228 67.456ZM131.308 64.096L131.808 64.9619L131.815 64.9577L131.822 64.9535L131.308 64.096ZM143.212 65.296L142.498 65.9962L142.505 66.0031L143.212 65.296ZM144.7 76.192L143.783 75.7933L143.779 75.803L144.7 76.192ZM142.108 80.704L141.294 80.1228L141.292 80.126L142.108 80.704ZM138.172 85.552L137.431 84.8807L137.43 84.8815L138.172 85.552ZM133.18 90.88L132.461 90.1852L130.631 92.079L133.257 91.8771L133.18 90.88ZM135.772 90.688L135.701 89.6905L135.701 89.6905L135.772 90.688ZM147.196 90.592H148.196V89.592H147.196V90.592ZM147.196 94V95H148.196V94H147.196ZM128.42 94V91.648H126.42V94H128.42ZM128.127 92.3551C130.434 90.048 132.486 87.9637 134.283 86.1026L132.845 84.7134C131.058 86.5643 129.014 88.64 126.713 90.9409L128.127 92.3551ZM134.283 86.1026C136.093 84.2279 137.623 82.4883 138.866 80.8848L137.286 79.6592C136.097 81.1917 134.619 82.8761 132.845 84.7134L134.283 86.1026ZM138.872 80.8771C140.114 79.243 141.082 77.7305 141.759 76.3424L139.961 75.4656C139.358 76.7015 138.47 78.101 137.28 79.6669L138.872 80.8771ZM141.763 76.3339C142.455 74.8812 142.82 73.4387 142.82 72.016H140.82C140.82 73.0893 140.545 74.2388 139.957 75.4741L141.763 76.3339ZM142.82 72.016C142.82 70.0656 142.283 68.38 141.139 67.0452L139.621 68.3468C140.397 69.252 140.82 70.4464 140.82 72.016H142.82ZM141.139 67.0452C139.933 65.6373 138.156 65.016 136.012 65.016V67.016C137.772 67.016 138.907 67.5147 139.621 68.3468L141.139 67.0452ZM136.012 65.016C134.527 65.016 133.149 65.4469 131.9 66.2917L133.02 67.9483C133.947 67.3211 134.937 67.016 136.012 67.016V65.016ZM131.917 66.2804C130.747 67.0372 129.685 67.9632 128.731 69.0535L130.237 70.3705C131.075 69.4128 131.997 68.6107 133.003 67.9596L131.917 66.2804ZM130.191 69.0049L127.935 66.7489L126.521 68.1631L128.777 70.4191L130.191 69.0049ZM127.968 68.1287C129.188 66.7862 130.469 65.7354 131.808 64.9619L130.808 63.2301C129.267 64.1206 127.828 65.3098 126.488 66.7833L127.968 68.1287ZM131.822 64.9535C133.079 64.1999 134.621 63.8 136.492 63.8V61.8C134.331 61.8 132.417 62.2641 130.794 63.2385L131.822 64.9535ZM136.492 63.8C139.135 63.8 141.094 64.5651 142.498 65.9962L143.926 64.5958C142.066 62.6989 139.545 61.8 136.492 61.8V63.8ZM142.505 66.0031C143.916 67.4144 144.66 69.3183 144.66 71.824H146.66C146.66 68.8897 145.772 66.4416 143.919 64.5889L142.505 66.0031ZM144.66 71.824C144.66 73.1119 144.375 74.4326 143.783 75.7933L145.617 76.5907C146.305 75.0074 146.66 73.4161 146.66 71.824H144.66ZM143.779 75.803C143.205 77.1616 142.381 78.6014 141.294 80.1228L142.922 81.2852C144.075 79.6706 144.979 78.1024 145.621 76.581L143.779 75.803ZM141.292 80.126C140.231 81.6234 138.945 83.2082 137.431 84.8807L138.913 86.2233C140.471 84.5038 141.809 82.8566 142.924 81.282L141.292 80.126ZM137.43 84.8815C135.935 86.536 134.278 88.3039 132.461 90.1852L133.899 91.5748C135.73 89.6801 137.401 87.896 138.914 86.2225L137.43 84.8815ZM133.257 91.8771C134.087 91.8132 134.949 91.7493 135.843 91.6855L135.701 89.6905C134.803 89.7547 133.937 89.8188 133.103 89.8829L133.257 91.8771ZM135.843 91.6855C136.718 91.623 137.542 91.592 138.316 91.592V89.592C137.49 89.592 136.618 89.625 135.701 89.6905L135.843 91.6855ZM138.316 91.592H147.196V89.592H138.316V91.592ZM146.196 90.592V94H148.196V90.592H146.196ZM147.196 93H127.42V95H147.196V93ZM154.063 90.448L153.216 90.9798L153.216 90.9798L154.063 90.448ZM154.063 66.832L153.222 66.2912L153.222 66.2912L154.063 66.832ZM168.511 66.832L169.353 66.2912L169.353 66.2912L168.511 66.832ZM168.511 90.448L169.358 90.9798L169.358 90.9798L168.511 90.448ZM163.711 90.688L164.275 91.5143L164.282 91.5089L163.711 90.688ZM165.583 88.384L164.694 87.926L164.689 87.9368L165.583 88.384ZM166.831 84.4L167.816 84.5772L167.816 84.5738L166.831 84.4ZM166.831 72.832L165.847 73.0092L165.847 73.0092L166.831 72.832ZM165.583 68.944L164.689 69.3912L164.697 69.4082L164.707 69.4248L165.583 68.944ZM163.711 66.688L163.148 67.5142L163.157 67.52L163.165 67.5256L163.711 66.688ZM158.863 66.688L159.41 67.5256L159.41 67.5256L158.863 66.688ZM156.943 68.944L156.06 68.4748L156.055 68.4854L156.943 68.944ZM155.743 72.832L154.759 72.6548L154.759 72.6548L155.743 72.832ZM156.943 88.384L156.06 88.8532L156.065 88.8614L156.069 88.8696L156.943 88.384ZM161.311 93.576C158.57 93.576 156.466 92.3934 154.91 89.9162L153.216 90.9798C155.117 94.0066 157.844 95.576 161.311 95.576V93.576ZM154.91 89.9162C153.325 87.3914 152.471 83.6564 152.471 78.592H150.471C150.471 83.8316 151.346 88.0006 153.216 90.9798L154.91 89.9162ZM152.471 78.592C152.471 73.5251 153.326 69.8286 154.905 67.3728L153.222 66.2912C151.345 69.2114 150.471 73.3549 150.471 78.592H152.471ZM154.905 67.3728C156.455 64.9608 158.56 63.8 161.311 63.8V61.8C157.855 61.8 155.128 63.3272 153.222 66.2912L154.905 67.3728ZM161.311 63.8C164.027 63.8 166.117 64.9571 167.67 67.3728L169.353 66.2912C167.449 63.3309 164.74 61.8 161.311 61.8V63.8ZM167.67 67.3728C169.249 69.8286 170.103 73.5251 170.103 78.592H172.103C172.103 73.3549 171.23 69.2114 169.353 66.2912L167.67 67.3728ZM170.103 78.592C170.103 83.6564 169.25 87.3914 167.664 89.9162L169.358 90.9798C171.229 88.0006 172.103 83.8316 172.103 78.592H170.103ZM167.664 89.9162C166.107 92.3972 164.016 93.576 161.311 93.576V95.576C164.751 95.576 167.46 94.0028 169.358 90.9798L167.664 89.9162ZM161.311 92.408C162.397 92.408 163.396 92.1135 164.275 91.5142L163.148 89.8618C162.619 90.2225 162.017 90.408 161.311 90.408V92.408ZM164.282 91.5089C165.189 90.8785 165.911 89.9644 166.478 88.8312L164.689 87.9368C164.232 88.8516 163.706 89.4735 163.14 89.8671L164.282 91.5089ZM166.472 88.842C167.075 87.6718 167.516 86.2416 167.816 84.5772L165.847 84.2228C165.571 85.7584 165.18 86.9842 164.694 87.926L166.472 88.842ZM167.816 84.5738C168.117 82.8684 168.263 80.8714 168.263 78.592H166.263C166.263 80.7926 166.122 82.6676 165.847 84.2262L167.816 84.5738ZM168.263 78.592C168.263 76.3131 168.117 74.3305 167.816 72.6548L165.847 73.0092C166.122 74.5335 166.263 76.3909 166.263 78.592H168.263ZM167.816 72.6548C167.516 70.9909 167.073 69.5815 166.46 68.4632L164.707 69.4248C165.181 70.2905 165.571 71.4731 165.847 73.0092L167.816 72.6548ZM166.478 68.4968C165.91 67.361 165.181 66.4524 164.258 65.8504L163.165 67.5256C163.714 67.8836 164.233 68.479 164.689 69.3912L166.478 68.4968ZM164.275 65.8618C163.396 65.2625 162.397 64.968 161.311 64.968V66.968C162.017 66.968 162.619 67.1535 163.148 67.5142L164.275 65.8618ZM161.311 64.968C160.225 64.968 159.219 65.2622 158.317 65.8504L159.41 67.5256C159.98 67.1538 160.605 66.968 161.311 66.968V64.968ZM158.317 65.8504C157.401 66.4476 156.659 67.3477 156.06 68.4748L157.826 69.4132C158.316 68.4923 158.853 67.8884 159.41 67.5256L158.317 65.8504ZM156.055 68.4854C155.481 69.5962 155.058 70.9973 154.759 72.6548L156.728 73.0092C157.005 71.4667 157.381 70.2758 157.832 69.4026L156.055 68.4854ZM154.759 72.6548C154.458 74.3305 154.311 76.3131 154.311 78.592H156.311C156.311 76.3909 156.453 74.5335 156.728 73.0092L154.759 72.6548ZM154.311 78.592C154.311 83.1099 154.853 86.5801 156.06 88.8532L157.826 87.9148C156.858 86.0919 156.311 83.0341 156.311 78.592H154.311ZM156.069 88.8696C157.307 91.0973 159.049 92.408 161.311 92.408V90.408C159.989 90.408 158.82 89.7027 157.818 87.8984L156.069 88.8696Z" fill="black"/>
</g>
<defs>
<filter id="filter0_d" x="0.5075" y="0.936005" width="253.831" height="102.64" filterUnits="userSpaceOnUse" color-interpolation-filters="sRGB">
<feFlood flood-opacity="0" result="BackgroundImageFix"/>
<feColorMatrix in="SourceAlpha" type="matrix" values="0 0 0 0 0 0 0 0 0 0 0 0 0 0 0 0 0 0 127 0"/>
<feOffset dy="4"/>
<feGaussianBlur stdDeviation="2"/>
<feColorMatrix type="matrix" values="0 0 0 0 0 0 0 0 0 0 0 0 0 0 0 0 0 0 0.25 0"/>
<feBlend mode="normal" in2="BackgroundImageFix" result="effect1_dropShadow"/>
<feBlend mode="normal" in="SourceGraphic" in2="effect1_dropShadow" result="shape"/>
</filter>
</defs>
</svg>
